<?xml version="1.0" encoding="UTF-8"?>
<svg id="Layer_1" xmlns="http://www.w3.org/2000/svg" version="1.1" viewBox="0 0 283.5 283.5">
  <!-- Generator: Adobe Illustrator 29.8.2, SVG Export Plug-In . SVG Version: 2.1.1 Build 3)  -->
  <defs>
    <style>
      .st0 {
        fill: #56655f;
      }

      .st1 {
        fill: #00bbd0;
      }
    </style>
  </defs>
  <path class="st1" d="M129.4,53.3c-2.3,4.3-2.2,9.4.2,13.7l12.1,21,12.1-21c2.4-4.2,2.5-9.3.2-13.6l-.2-.4c-2.6-4.5-7.5-7.2-12.7-7,0,0,0,0,0,0-1.9,0-3.8.6-5.6,1.4,0,0,0,0,0,0-.3.1-.5.3-.8.4-.5.3-1,.6-1.4,1,0,0,0,0,0,0-1.5,1.1-2.7,2.5-3.7,4.2l-.2.4ZM110.2,151.5h63.1l-31.6-54.7-31.6,54.7ZM123.6,63.4l-51.5,89.2c1.9-.7,4-1,6.1-1h26.8l34.1-59.1-13.4-23.3c-1.1-1.8-1.8-3.8-2.2-5.8M178.4,151.5h26.8c2.1,0,4.2.4,6.1,1.1l-51.5-89.2c-.4,2-1.1,4-2.2,5.8l-13.4,23.3,34.1,59.1ZM69.9,181.3c.4.3.9.6,1.3.8,2.1,1.2,4.5,1.9,7,1.9,5,0,9.7-2.7,12.2-7l12.1-21h-24.3c-4.9,0-9.4,2.5-11.9,6.7l-.2.4c-.6,1.1-1.1,2.3-1.4,3.5-.3,1.1-.4,2.3-.4,3.5s0,.5,0,.7c0,1,.2,2,.5,2.9.3,1,.6,1.9,1.1,2.8,1,1.9,2.4,3.6,4.2,4.9M181,156l12.1,21c2.5,4.3,7.2,7,12.2,7s4.9-.6,7-1.9c1.1-.6,2.1-1.4,2.9-2.3,0,0,0,0,0,0,.3-.3.6-.7.9-1,0,0,0,0,0,0,1.8-2.2,2.9-5.1,3.1-7.9h0c0-.3,0-.6,0-.9,0-1.3-.2-2.7-.6-3.9-.3-1.1-.8-2.1-1.3-3.1v-.2c-2.6-4.2-7.2-6.8-12.1-6.8h-24.3ZM90.2,184h103.1c-1.6-1.3-2.9-3-4-4.8l-13.4-23.2h-68.3l-13.4,23.2c-1.1,1.8-2.4,3.5-4,4.8M205.3,188.4h-127.1c-3.8,0-7.4-1.2-10.3-3.2-2.8-1.9-4.9-4.4-6.3-7.4-.9-2-1.5-4.2-1.7-6.5-.2-2.3,0-4.6.8-6.8.5-1.5,1.1-2.9,1.9-4.2l63-109.2c1.3-2.3,3-4.3,5.1-5.9,0,0,0,0,0,0,.9-.7,1.9-1.3,3-1.8,0,0,0,0,0,0,2.3-1.1,4.8-1.8,7.3-1.9h0c3.5-.2,7,.7,10,2.5,3,1.7,5.4,4.2,7,7.2l63.1,109.4c.8,1.3,1.4,2.8,1.9,4.3.6,2.1.8,4.2.7,6.4h0c-.2,3.9-1.7,7.5-4.1,10.5,0,0,0,0,0,0-.4.5-.8.9-1.2,1.3h0c-3.5,3.5-8.1,5.5-13.1,5.5"/>
  <path class="st0" d="M50.1,238.4h1c.5,0,1-.5,1-1v-18.8c0-.4-.5-1.1-1-1.1h-1.7v-3.4h7.4c.7,0,1,.5,1,1.3v22c0,.5.6,1,1,1h1.6v3.3h-10.4v-3.3Z"/>
  <path class="st0" d="M61.3,221.5h2.4v-2c0-3.9,2.5-5.7,6.5-5.7s3.5.2,4.3.5v3.2h-2.2c-1.7,0-2.9.2-2.9,2.1v1.8h3.9v3.5h-3.9v12.5c0,.5.5,1,1,1h1.8v3.3h-10.3v-3.3h.8c.5,0,1-.6,1-1v-12.5h-2.4v-3.5Z"/>
  <path class="st0" d="M103.2,231.5c0-6.5,4-10.6,10-10.6s9.1,3,9.1,9.9,0,1.1,0,1.3h-14.6c.2,4.8,2.2,7.1,6.3,7.1s4.2-1,5.3-2.3h2.4v2.9c-1.6,1.1-3.9,2.1-8,2.1-6.9,0-10.4-4-10.4-10.4M118,229.6c-.2-4.3-1.8-6-4.8-6s-5.1,2-5.5,6h10.3Z"/>
  <path class="st0" d="M123.2,239.2h1.5c.5,0,1.1-.5,1.1-1.1v-13.2c0-.5-.5-1.1-1-1.1h-1.7v-2.7h6.2c.5,0,.8.5.8,1.8v15.1c0,.5.5,1.1,1.1,1.1h1.5v2.5h-9.4v-2.5ZM125.4,216.7c0-1.3,1.1-2.4,2.4-2.4s2.4,1.1,2.4,2.4-1.1,2.4-2.4,2.4-2.4-1.1-2.4-2.4"/>
  <path class="st0" d="M133.2,231.5c0-6.5,4-10.6,10-10.6s9.1,3,9.1,9.9,0,1.1,0,1.3h-14.6c.2,4.8,2.2,7.1,6.3,7.1s4.2-1,5.3-2.3h2.4v2.9c-1.6,1.1-3.9,2.1-8,2.1-6.9,0-10.4-4-10.4-10.4M147.9,229.6c-.2-4.3-1.8-6-4.8-6s-5.1,2-5.5,6h10.3Z"/>
  <path class="st0" d="M153.2,239.2h1.5c.5,0,1.1-.5,1.1-1.1v-13.2c0-.5-.5-1.1-1.1-1.1h-1.7v-2.7h6c.6,0,1,.5,1,2.5v.5c2-1.9,4.9-3.3,8.1-3.3s5.4,1.1,5.4,5.1v12.1c0,.5.5,1.1,1,1.1h1.3v2.5h-9.3v-2.5h2.8v-11.7c0-2.5-1.1-3.2-3.2-3.2s-4.2.9-6,2v12.9h2.9v2.5h-9.7v-2.5Z"/>
  <path class="st0" d="M176.5,231.7c0-7.8,4.8-10.7,9-10.7s5,1.1,6.3,2.4v-6.5h-3v-2.6h6.4c.5,0,.8.4.8,1.1v22.7c0,.5.5,1.1,1.1,1.1h1.5v2.5h-5.9c-.5,0-.8-.6-.8-2.8-1.4,1.7-3.7,3-6.8,3s-8.5-2.4-8.5-10.2M191.7,236.6v-10.9c-1.3-1-2.8-1.7-4.9-1.7-3,0-5.9,1.6-5.9,7.6s2.7,7.7,5.4,7.7,4.1-1.3,5.5-2.7"/>
  <path class="st0" d="M199,231.5c0-6.6,4.6-10.6,10.4-10.6s10.4,4,10.4,10.6-4.5,10.4-10.4,10.4-10.4-3.9-10.4-10.4M215.5,231.6c0-5.1-2.5-7.7-6.1-7.7s-6.1,2.7-6.1,7.7,2.5,7.6,6.1,7.6,6.1-2.6,6.1-7.6"/>
  <path class="st0" d="M220.6,239.2h1.5c.5,0,1.1-.5,1.1-1.1v-13.2c0-.5-.5-1.1-1.1-1.1h-1.7v-2.7h6c.6,0,1,.6,1,2.5v.6c1.9-1.7,4.4-3.3,7.5-3.3s4.4.7,5,3.4c2.1-1.8,4.6-3.4,7.7-3.4s5.1,1.1,5.1,5.1v12.1c0,.5.5,1.1,1.1,1.1h1.3v2.5h-9.3v-2.5h2.8v-11.8c0-2.5-1-3.1-2.9-3.1s-3.9.9-5.6,1.9v13h2.6v2.5h-9.4v-2.5h2.6v-11.8c0-2.5-1-3.1-2.9-3.1s-3.9.8-5.6,1.9v13h2.8v2.5h-9.6v-2.5Z"/>
  <path class="st0" d="M47.4,238.4c-.5,0-1-.5-1-1v-10.3c0-4.7-2.8-6.5-8.2-6.5s-6.6.7-8.5,1.6h0c0,0,2.6,4.2,2.6,4.2h0c1-.9,2.3-1.9,4.8-1.9s3.6,1,3.6,3.1v2.2c-1.3-.3-2.5-.5-4.2-.5-4.8,0-8.1,2-8.1,6.3s2.8,6.2,6.6,6.2,4.4-.7,6-2.6c.5,1.7,1.7,2.6,4.1,2.6s3.5-.3,3.5-.3v-3.3h-1.1ZM40.7,237.1c-1,.9-2.2,1.5-3.6,1.5s-3.1-1-3.1-3.1,1.4-3,3.7-3,2.1,0,3,.2v4.4Z"/>
  <path class="st0" d="M92.9,238.4c-.5,0-1-.5-1-1v-10.3c0-4.7-2.8-6.5-8.2-6.5s-6.6.7-8.5,1.6h0c0,0,2.6,4.2,2.6,4.2h0c1-.9,2.3-1.9,4.8-1.9s3.6,1,3.6,3.1v2.2c-1.3-.3-2.5-.5-4.2-.5-4.8,0-8.1,2-8.1,6.3s2.8,6.2,6.6,6.2,4.4-.7,6-2.6c.5,1.7,1.7,2.6,4.1,2.6s2.7-.3,3.5-.8v-2.8h-1.1ZM86.2,237.1c-1,.9-2.2,1.5-3.6,1.5s-3.1-1-3.1-3.1,1.4-3,3.7-3,2.1,0,3,.2v4.4Z"/>
</svg>