<?xml version="1.0" encoding="UTF-8"?>
<svg id="Layer_1" xmlns="http://www.w3.org/2000/svg" viewBox="0 0 526.55 102.2">
  <defs>
    <style>
      .cls-1 {
        fill: #1d1d1b;
      }
    </style>
  </defs>
  <path class="cls-1" d="M99.15,79.57l2.78-4.29-23.93-23.93,24.45-24.45-2.78-4.29-25.2,25.2-19.58-19.58L80.09,3.04l-4.29-2.78-24.45,24.45L26.65,0l-4.29,2.78,25.46,25.46-19.58,19.58L2.78,22.36l-2.78,4.29,24.7,24.7L.51,75.55l2.78,4.29,22.58-22.58.11-4.62,21.83,21.83-24.94,24.94,4.29,2.78,21.83-21.83.11-4.62,26.19,26.19,4.29-2.78-24.69-24.69,17.2-17.2.13-4.63,26.94,26.94ZM51.35,70.93l-19.58-19.58,17.21-17.21.12-4.62,21.83,21.83-19.58,19.58Z"/>
  <g>
    <path class="cls-1" d="M146.45,40.64h-4.72v-4.16h4.72v-9.67c0-2.32,2.64-5.6,6.24-7.75,2.64-1.52,5.2-2.32,7.83-2.32,2.16,0,4,.32,9.11,1.76v9.11l-.64.24c-2.8-5.84-4.48-7.59-7.44-7.59-.64,0-1.28.16-1.84.48-.88.48-1.44,1.2-1.44,1.84v13.91h6.24v4.16h-9.55l3.31,3.28v31.17h-11.83v-34.46Z"/>
    <path class="cls-1" d="M187.87,38.88c-3.92,0-6.08,3.92-6.08,11.27,0,1.36.08,3.52.16,6.4l11.19-6c0-8.63-1.36-11.67-5.27-11.67M191.62,72.3c5.2,0,8.79-2.4,11.75-8.07l.88-.08-.4,8.07c-3.6,2.56-8.15,3.76-14.63,3.76-11.99,0-20.07-8.71-20.07-21.75,0-10.63,8.15-18.86,18.71-18.86,9.43,0,14.55,4.56,16.23,14.31l-21.74,12.15c.56,6.63,4,10.47,9.27,10.47"/>
    <path class="cls-1" d="M209.22,63.02h.56c.56.64.96,1.2,1.2,1.52,1.76,2.32,2.72,3.6,3.04,3.84,2.24,2.16,6.96,3.92,10.47,3.92s6.48-2.4,6.48-5.51c0-2.48-1.68-4.08-6.24-5.76-10.63-4.08-14.95-8.16-14.95-14.15,0-6.72,6.48-11.75,15.19-11.75,3.76,0,6.32.56,12.31,2.64v8.47l-.8.16c-4-5.68-7.12-7.67-11.99-7.67-3.52,0-5.84,1.84-5.84,4.56,0,2.08,1.2,3.36,4,4.48l6.24,2.4c7.44,2.88,10.87,6.79,10.87,12.31,0,7.92-6.55,13.51-15.75,13.51-.72,0-1.76-.08-3.12-.32-5.68-.72-7.11-1.12-11.67-3.2v-9.43Z"/>
    <path class="cls-1" d="M259.67,22.17v13.91h6.95v4.64h-9.86l3.22,3.23v24.91c0,1.44,1.44,2.72,3.04,2.72.72,0,1.76-.24,3.28-.72v3.92c0,.8-.08.8-1.36.88l-4.64.32h-.72c-5.84,0-11.19-5.2-11.19-10.95V27.29l11.27-5.12Z"/>
    <path class="cls-1" d="M370.55,22.17v13.91h6.95v4.64h-9.86l3.22,3.23v24.91c0,1.44,1.44,2.72,3.04,2.72.72,0,1.76-.24,3.28-.72v3.92c0,.8-.08.8-1.36.88l-4.64.32h-.72c-5.84,0-11.19-5.2-11.19-10.95V27.29l11.27-5.12Z"/>
    <path class="cls-1" d="M437.42,22.17v13.91h6.95v4.64h-9.86l3.23,3.23v24.91c0,1.44,1.44,2.72,3.04,2.72.72,0,1.76-.24,3.28-.72v3.92c0,.8-.08.8-1.36.88l-4.64.32h-.72c-5.84,0-11.19-5.2-11.19-10.95V27.29l11.27-5.12Z"/>
    <path class="cls-1" d="M273.26,40.64l10.71-5.12h1.04v39.57h-11.75v-34.46ZM279.65,16.42c3.84,0,6.56,2.48,6.56,5.92,0,3.84-2.48,5.68-7.36,5.68-3.84,0-6.4-2.24-6.4-5.68s2.56-5.6,6.71-5.92h.48Z"/>
  </g>
  <polygon class="cls-1" points="293.25 40.64 303.16 35.76 313.71 60.54 324.51 36.08 328.98 36.08 311.88 75.97 308.84 75.73 293.25 40.64"/>
  <g>
    <path class="cls-1" d="M335.46,40.64l10.71-5.12h1.04v39.57h-11.75v-34.46ZM341.86,16.42c3.84,0,6.56,2.48,6.56,5.92,0,3.84-2.48,5.68-7.36,5.68-3.84,0-6.4-2.24-6.4-5.68s2.56-5.6,6.71-5.92h.48Z"/>
    <path class="cls-1" d="M401.11,38.88c-3.92,0-6.08,3.92-6.08,11.27,0,1.36.08,3.52.16,6.4l11.19-6c0-8.63-1.36-11.67-5.28-11.67M404.86,72.3c5.2,0,8.79-2.4,11.75-8.07l.88-.08-.4,8.07c-3.6,2.56-8.15,3.76-14.63,3.76-11.99,0-20.07-8.71-20.07-21.75,0-10.63,8.15-18.86,18.71-18.86,9.43,0,14.55,4.56,16.23,14.31l-21.74,12.15c.56,6.63,4,10.47,9.27,10.47"/>
    <path class="cls-1" d="M467.71,38.88c-3.92,0-6.08,3.92-6.08,11.27,0,1.36.08,3.52.16,6.4l11.19-6c0-8.63-1.36-11.67-5.28-11.67M471.47,72.3c5.2,0,8.79-2.4,11.75-8.07l.88-.08-.4,8.07c-3.6,2.56-8.15,3.76-14.63,3.76-11.99,0-20.07-8.71-20.07-21.75,0-10.63,8.15-18.86,18.71-18.86,9.43,0,14.55,4.56,16.23,14.31l-21.74,12.15c.56,6.63,4,10.47,9.27,10.47"/>
    <path class="cls-1" d="M490.98,39.76l10.47-4.8h.56v6.56c4.88-4.8,8.47-6.56,13.51-6.56,6.08,0,11.03,3.92,11.03,8.71v31.42h-11.67v-27.9c0-1.36-.4-2.64-1.2-3.76-1.12-1.68-2.24-2.4-3.52-2.4-2.24,0-3.36.56-5.68,2.64-.48.4-.88.72-1.2.96-.88.64-1.36,1.28-1.36,1.6l.08,28.86h-11.03v-35.34Z"/>
  </g>
</svg>